<svg id="Layer_1" data-name="Layer 1" xmlns="http://www.w3.org/2000/svg" viewBox="0 0 196 55"><defs><style>.cls-1{fill:#f36;}.cls-2{fill:#34495e;}</style></defs><title>logo-trademarked copy</title><path class="cls-1" d="M11.32,42.56V17.77a1.32,1.32,0,0,1,1.26-1.33,1.29,1.29,0,0,1,1.3,1.28V41.06L34.09,29.39a1.28,1.28,0,0,1,1.28,2.22L13.86,44A1.7,1.7,0,0,1,11.32,42.56Z"/><path class="cls-1" d="M16.82,37.13a1.31,1.31,0,0,1-1.26-1.32V11a1.7,1.7,0,0,1,2.55-1.47L39.61,22a1.28,1.28,0,1,1-1.28,2.22L18.12,12.52V35.85A1.27,1.27,0,0,1,16.82,37.13Z"/><path class="cls-1" d="M21.15,44.56A1.29,1.29,0,0,1,20,43.92a1.27,1.27,0,0,1,.47-1.75L40.72,30.5,20.51,18.83A1.27,1.27,0,0,1,20,17.08a1.29,1.29,0,0,1,1.75-.47L43.3,29a1.7,1.7,0,0,1,0,2.94L21.79,44.39A1.33,1.33,0,0,1,21.15,44.56Z"/><path class="cls-2" d="M53.74,31.54v-.07c0-3.84,3.18-5.89,7.8-5.89a19.29,19.29,0,0,1,5.61.78v-.64c0-3.28-2-5-5.43-5a11.37,11.37,0,0,0-4.73,1,1.38,1.38,0,0,1-.49.1,1.2,1.2,0,0,1-1.2-1.16A1.24,1.24,0,0,1,56,19.58a14.31,14.31,0,0,1,6-1.24,8,8,0,0,1,5.9,2,7.22,7.22,0,0,1,1.87,5.33v10A1.29,1.29,0,0,1,68.46,37a1.25,1.25,0,0,1-1.31-1.27V34.08a8,8,0,0,1-6.59,3.14C57.17,37.22,53.74,35.28,53.74,31.54Zm13.45-1.41V28.37a18.93,18.93,0,0,0-5.36-.78c-3.43,0-5.33,1.48-5.33,3.78v.07c0,2.29,2.11,3.63,4.58,3.63C64.44,35.07,67.19,33,67.19,30.13Z"/><path class="cls-2" d="M90.62,35.64a1.36,1.36,0,1,1-2.72,0V33.17a8.2,8.2,0,0,1-7,4c-4.38,0-8.72-3.45-8.72-9.45V27.7c0-6,4.34-9.5,8.72-9.5a8.22,8.22,0,0,1,7,3.89V12.27a1.33,1.33,0,0,1,1.35-1.37,1.35,1.35,0,0,1,1.37,1.37ZM75,27.66v.07c0,4.31,3,7.06,6.42,7.06A6.81,6.81,0,0,0,88,27.73v-.07a6.78,6.78,0,0,0-6.6-7C77.88,20.64,75,23.25,75,27.66Z"/><path class="cls-2" d="M94.23,19.58a.82.82,0,0,1,.85-.88.85.85,0,0,1,.88.88v3.28c1.55-2.36,3.84-4.44,7.41-4.44a8.93,8.93,0,0,1,8.75,9.35v.07c0,5.86-4.41,9.42-8.75,9.42A8.65,8.65,0,0,1,96,33v8.79a.83.83,0,0,1-.85.88.85.85,0,0,1-.88-.88Zm16,8.33v-.07c0-4.73-3.28-7.77-7.06-7.77a7.54,7.54,0,0,0-7.34,7.73v.07a7.51,7.51,0,0,0,7.34,7.73C107.11,35.6,110.25,32.74,110.25,27.91Z"/><path class="cls-2" d="M114.8,31.61v-.07c0-3.74,3.21-5.85,7.87-5.85a21.53,21.53,0,0,1,6,.77v-.77c0-3.64-2.22-5.51-5.92-5.51a11.57,11.57,0,0,0-5.12,1.2.93.93,0,0,1-.39.11.85.85,0,0,1-.81-.82.88.88,0,0,1,.49-.77,14,14,0,0,1,5.93-1.34,7.78,7.78,0,0,1,5.68,2,6.84,6.84,0,0,1,1.84,5.08V36.1a.85.85,0,1,1-1.7,0V33.84a8.16,8.16,0,0,1-6.88,3.42C118.4,37.26,114.8,35.35,114.8,31.61Zm13.87-1.51V28.05a23.82,23.82,0,0,0-6.11-.81c-3.81,0-5.92,1.69-5.92,4.2v.07c0,2.61,2.47,4.13,5.22,4.13C125.53,35.64,128.67,33.38,128.67,30.1Z"/><path class="cls-2" d="M134.42,19.58a.87.87,0,1,1,1.73,0V24c1.55-3.5,4.69-5.4,7.23-5.4a.92.92,0,0,1,.92,1,.94.94,0,0,1-.92.95c-3.81.35-7.23,3.21-7.23,9V36.1a.84.84,0,0,1-.85.88.86.86,0,0,1-.88-.88Z"/><path class="cls-2" d="M147,11.82a.84.84,0,0,1,.84-.89.88.88,0,0,1,.89.89V36.1a.83.83,0,0,1-.85.88.86.86,0,0,1-.88-.88Z"/><path class="cls-2" d="M152.38,27.91v-.07a9.3,9.3,0,0,1,9.28-9.42,9.2,9.2,0,0,1,9.21,9.35v.07a9.3,9.3,0,0,1-9.28,9.42A9.2,9.2,0,0,1,152.38,27.91Zm16.62,0v-.07a7.54,7.54,0,0,0-7.41-7.8,7.42,7.42,0,0,0-7.34,7.73v.07a7.55,7.55,0,0,0,7.41,7.8A7.43,7.43,0,0,0,169,27.91Z"/><path class="cls-2" d="M174.44,19.58a.84.84,0,0,1,.84-.88.85.85,0,0,1,.89.88V24c1.55-3.5,4.69-5.4,7.23-5.4a.92.92,0,0,1,.92,1,.94.94,0,0,1-.92.95c-3.81.35-7.23,3.21-7.23,9V36.1a.87.87,0,1,1-1.73,0Z"/></svg>