<?xml version="1.0" encoding="utf-8"?>
<!-- Generator: Adobe Illustrator 22.0.1, SVG Export Plug-In . SVG Version: 6.00 Build 0)  -->
<svg version="1.1" id="Layer_1" xmlns="http://www.w3.org/2000/svg" xmlns:xlink="http://www.w3.org/1999/xlink" x="0px" y="0px"
	 viewBox="0 0 360 360" style="enable-background:new 0 0 360 360;" xml:space="preserve">
<style type="text/css">
	.st0{fill:#EE3A68;}
</style>
<g>
	<g>
		<path class="st0" d="M25.5,330.4l0-240.6c0-6.8,5.4-12.7,12.2-12.8c7-0.1,12.7,5.5,12.7,12.4v226.4l196.1-113.2
			c5.9-3.4,13.5-1.4,17,4.6c3.4,5.9,1.4,13.5-4.6,17L50.2,344.7C39.2,351,25.5,343.1,25.5,330.4z"/>
	</g>
	<g>
		<path class="st0" d="M78.8,277.8c-6.8-0.1-12.2-6-12.2-12.8V24.4c0-12.7,13.7-20.6,24.7-14.3L300,130.6c5.9,3.4,8,11,4.6,17
			c-3.4,5.9-11,8-17,4.6L91.5,39v226.4C91.5,272.3,85.8,277.9,78.8,277.8z"/>
	</g>
	<g>
		<path class="st0" d="M120.9,349.9c-4.3,0-8.5-2.2-10.8-6.2c-3.4-5.9-1.4-13.5,4.6-17l196.1-113.2L114.6,100.2
			c-5.9-3.4-8-11-4.6-17c3.4-5.9,11-8,17-4.6l208.7,120.5c11,6.3,11,22.2,0,28.5L127.1,348.2C125.1,349.3,123,349.9,120.9,349.9z"/>
	</g>
</g>
</svg>
