<svg id="Layer_1" data-name="Layer 1" xmlns="http://www.w3.org/2000/svg" viewBox="0 0 1080 1080"><defs><style>.cls-1{fill:#077cc1;}.cls-2{fill:#fff;}</style></defs><title>Blueprint_Logo</title><path class="cls-1" d="M361,475.83v-.29c0-21.7,16.78-39.93,39.78-39.93,12,0,20.26,3.91,26.76,9.55a8.28,8.28,0,0,1,2.75,6.08,8,8,0,0,1-8.1,7.95,9,9,0,0,1-5.21-1.73c-4.48-3.77-9.4-6.51-16.34-6.51-12.73,0-22.13,11-22.13,24.3v.29c0,13.59,9.4,24.44,22.85,24.44,6.95,0,12.3-2.74,17.07-6.79a7.37,7.37,0,0,1,12.3,5.78,6.82,6.82,0,0,1-2.46,5.5c-6.8,6.51-15.05,10.85-27.78,10.85C377.81,515.32,361,497.52,361,475.83Z"/><path class="cls-1" d="M447.83,445.16a8.64,8.64,0,0,1,8.68-8.82,8.76,8.76,0,0,1,8.82,8.82V453c4.05-9.55,11.57-16.78,19.24-16.78,5.5,0,8.68,3.62,8.68,8.68a8.21,8.21,0,0,1-6.95,8.39c-12.43,2.17-21,11.72-21,29.8v22.57a8.73,8.73,0,0,1-8.82,8.67,8.61,8.61,0,0,1-8.68-8.67Z"/><path class="cls-1" d="M540,515.32c-22.13,0-39.2-16.06-39.2-39.64v-.29c0-21.84,15.48-39.78,37.32-39.78,24.3,0,36.31,20,36.31,37.61a8.18,8.18,0,0,1-8.25,8.39H518.27c1.88,12.44,10.71,19.39,22,19.39a27.45,27.45,0,0,0,18.08-6.66,6.53,6.53,0,0,1,4.49-1.59,6.89,6.89,0,0,1,6.94,7.09,7.6,7.6,0,0,1-2.32,5.35C560.51,511.41,551.83,515.32,540,515.32ZM557.33,470c-1.16-11.28-7.81-20.11-19.38-20.11-10.71,0-18.23,8.25-19.82,20.11Z"/><path class="cls-1" d="M587.27,491.59v-.29c0-16.49,12.88-24.59,31.54-24.59a63.82,63.82,0,0,1,20.54,3.19V468c0-10.85-6.66-16.64-19-16.64a45.4,45.4,0,0,0-16.93,3,9.78,9.78,0,0,1-2.75.43,7.28,7.28,0,0,1-7.37-7.23,7.64,7.64,0,0,1,4.77-6.94,65.42,65.42,0,0,1,24.59-4.49c11.43,0,20,3,25.32,8.54,5.64,5.49,8.24,13.59,8.24,23.57v37.61a8.33,8.33,0,0,1-8.53,8.39c-5.07,0-8.54-3.47-8.54-7.37V504c-5.21,6.22-13.16,11.14-24.88,11.14C600,515.17,587.27,506.93,587.27,491.59Zm52.37-5.49v-5.21a48.48,48.48,0,0,0-17.36-3c-11.29,0-17.94,4.78-17.94,12.73v.29c0,7.38,6.51,11.57,14.9,11.57C630.81,502.44,639.64,495.79,639.64,486.1Z"/><path class="cls-1" d="M680.14,492.46V452.25h-2.89a7.53,7.53,0,0,1,0-15.05h2.89v-13a8.75,8.75,0,0,1,17.5,0v13h13.75a7.53,7.53,0,1,1,0,15.05H697.64v37.46c0,6.8,3.48,9.55,9.41,9.55a42,42,0,0,0,4.34-.43,7.37,7.37,0,0,1,7.37,7.23,7.53,7.53,0,0,1-4.63,6.8,34.82,34.82,0,0,1-12,2C689.25,514.88,680.14,509.24,680.14,492.46Z"/><path class="cls-1" d="M735.69,416.66c0-5.2,4.34-8.53,10-8.53s10,3.33,10,8.53v.87c0,5.21-4.34,8.68-10,8.68s-10-3.47-10-8.68Zm1.3,28.5a8.64,8.64,0,0,1,8.68-8.82,8.76,8.76,0,0,1,8.82,8.82v60.47a8.75,8.75,0,0,1-17.5,0Z"/><path class="cls-1" d="M809.17,515h-.87c-4.77,0-7.95-3-10-7.67l-25.46-58.29a13.8,13.8,0,0,1-1-4.34,8.75,8.75,0,0,1,8.68-8.39c4.78,0,7.23,2.74,8.68,6.36l19.67,50.63,20-50.92c1.31-3,3.62-6.07,8.25-6.07a8.34,8.34,0,0,1,8.54,8.39,10.37,10.37,0,0,1-1,4.19l-25.46,58.44C817.13,511.85,814,515,809.17,515Z"/><path class="cls-1" d="M894.23,515.32c-22.13,0-39.2-16.06-39.2-39.64v-.29c0-21.84,15.48-39.78,37.32-39.78,24.3,0,36.31,20,36.31,37.61a8.18,8.18,0,0,1-8.25,8.39H872.53c1.88,12.44,10.71,19.39,22,19.39a27.45,27.45,0,0,0,18.08-6.66,6.52,6.52,0,0,1,4.48-1.59,6.89,6.89,0,0,1,6.95,7.09,7.6,7.6,0,0,1-2.32,5.35C914.77,511.41,906.09,515.32,894.23,515.32ZM911.59,470c-1.16-11.28-7.81-20.11-19.39-20.11-10.7,0-18.22,8.25-19.81,20.11Z"/><path class="cls-1" d="M366.68,546.8a5.57,5.57,0,1,1,11.13,0v40.94c6.08-9,14.9-16.63,28.65-16.63,17.93,0,35.72,14.17,35.72,38.76v.29c0,24.45-17.64,38.91-35.72,38.91-13.89,0-22.86-7.52-28.65-15.91v9.41a5.52,5.52,0,0,1-5.49,5.64,5.65,5.65,0,0,1-5.64-5.64Zm64.08,63.51V610c0-17.65-12.16-28.93-26.33-28.93-13.89,0-27.05,11.71-27.05,28.78v.29c0,17.36,13.16,28.93,27.05,28.93C418.9,639.09,430.76,628.39,430.76,610.31Z"/><path class="cls-1" d="M458,546.8a5.57,5.57,0,1,1,11.14,0v95.77a5.44,5.44,0,0,1-5.5,5.64,5.56,5.56,0,0,1-5.64-5.64Z"/><path class="cls-1" d="M553.28,642.57a5.5,5.5,0,1,1-11,0v-8.11c-5.06,8.11-12.73,14.61-25.6,14.61-18.08,0-28.64-12.15-28.64-29.94V577.61a5.44,5.44,0,0,1,5.49-5.64,5.65,5.65,0,0,1,5.65,5.64v38.77c0,13.89,7.52,22.57,20.68,22.57,12.73,0,22.42-9.4,22.42-23.43V577.61a5.44,5.44,0,0,1,5.5-5.64,5.53,5.53,0,0,1,5.5,5.64Z"/><path class="cls-1" d="M605.21,649.22c-20.54,0-37.32-15.77-37.32-38.91V610c0-21.56,15.18-38.91,35.87-38.91,22.13,0,34.72,18.08,34.72,37.9a5.18,5.18,0,0,1-5.21,5.2h-54.1c1.59,16.2,13,25.32,26.33,25.32,9.25,0,16-3.62,21.55-8.68a4.77,4.77,0,1,1,6.36,7.09C626.33,644.73,617.94,649.22,605.21,649.22ZM627.34,606c-1.16-13.6-9-25.46-23.87-25.46-13,0-22.85,10.85-24.3,25.46Z"/><path class="cls-1" d="M652.36,577.61a5.57,5.57,0,1,1,11.14,0v10.13c6.08-9,14.9-16.63,28.64-16.63,17.94,0,35.73,14.17,35.73,38.76v.29c0,24.45-17.65,38.91-35.73,38.91-13.88,0-22.85-7.52-28.64-15.91v32.55a5.44,5.44,0,0,1-5.5,5.64,5.56,5.56,0,0,1-5.64-5.64Zm64.08,32.7V610c0-17.65-12.15-28.93-26.32-28.93-13.89,0-27,11.71-27,28.78v.29c0,17.36,13.16,28.93,27,28.93C704.58,639.09,716.44,628.39,716.44,610.31Z"/><path class="cls-1" d="M742.63,577.61a5.62,5.62,0,0,1,5.49-5.64,5.56,5.56,0,0,1,5.65,5.64v14c5.49-12.44,16.34-20,25.74-20a5.35,5.35,0,0,1,5.5,5.64,5.54,5.54,0,0,1-4.92,5.64c-14.46,1.73-26.32,12.58-26.32,34.14v25.46a5.57,5.57,0,1,1-11.14,0Z"/><path class="cls-1" d="M795.42,549.26c0-3.61,2.9-5.93,6.51-5.93,3.76,0,6.66,2.32,6.66,5.93v1.88c0,3.48-2.9,5.94-6.66,5.94-3.61,0-6.51-2.46-6.51-5.94Zm1,28.35a5.62,5.62,0,0,1,5.49-5.64,5.56,5.56,0,0,1,5.65,5.64v65a5.44,5.44,0,0,1-5.5,5.64,5.56,5.56,0,0,1-5.64-5.64Z"/><path class="cls-1" d="M827.68,577.61a5.62,5.62,0,0,1,5.5-5.64,5.56,5.56,0,0,1,5.64,5.64v8.11c4.92-8.11,12.73-14.61,25.6-14.61,18.08,0,28.64,12.15,28.64,29.94v41.52a5.57,5.57,0,1,1-11.14,0V603.8c0-13.89-7.52-22.57-20.68-22.57-12.87,0-22.42,9.4-22.42,23.44v37.9a5.44,5.44,0,0,1-5.5,5.64,5.56,5.56,0,0,1-5.64-5.64Z"/><path class="cls-1" d="M914.91,627.67V582.53h-6.08a5.07,5.07,0,0,1-4.92-4.92,5,5,0,0,1,4.92-4.91h6.08V555.05a5.52,5.52,0,0,1,5.49-5.64,5.75,5.75,0,0,1,5.65,5.64V572.7h19.38a5.09,5.09,0,0,1,5.06,4.91,5,5,0,0,1-5.06,4.92H926.05v43.69c0,9.11,5.06,12.44,12.58,12.44,3.91,0,5.93-1,6.8-1a4.81,4.81,0,0,1,4.77,4.77,4.64,4.64,0,0,1-3.18,4.34,28.14,28.14,0,0,1-11,2C924,648.79,914.91,642.85,914.91,627.67Z"/><path class="cls-1" d="M959.61,639.53a5,5,0,0,1-2-4,4.85,4.85,0,0,1,4.92-4.78,4.47,4.47,0,0,1,2.75.87c7.66,5.21,15.62,8,23.72,8,9,0,15.48-4.63,15.48-11.86v-.29c0-7.53-8.83-10.42-18.66-13.17-11.72-3.32-24.74-7.37-24.74-21.12v-.29c0-12.87,10.71-21.41,25.46-21.41a52.16,52.16,0,0,1,23.87,6.37,5.41,5.41,0,0,1,2.75,4.63,4.85,4.85,0,0,1-4.92,4.77,5.6,5.6,0,0,1-2.46-.58c-6.37-3.61-13.16-5.78-19.53-5.78-8.82,0-14.46,4.63-14.46,10.85v.29c0,7.08,9.25,9.83,19.24,12.87,11.57,3.47,24,8,24,21.41v.29c0,14.17-11.72,22.42-26.62,22.42A51.76,51.76,0,0,1,959.61,639.53Z"/><rect class="cls-1" x="61.01" y="408.53" width="249.87" height="263.34" rx="6.47" ry="6.47"/><path class="cls-2" d="M129.27,597.47V504.54a4.94,4.94,0,0,1,4.72-5,4.84,4.84,0,0,1,4.87,4.8h0v87.49l75.76-43.75a4.8,4.8,0,1,1,4.8,8.32h0l-80.63,46.45a6.37,6.37,0,0,1-9.52-5.4Z"/><path class="cls-2" d="M149.88,577.12a4.92,4.92,0,0,1-4.72-5v-93a6.36,6.36,0,0,1,9.56-5.51l80.59,46.74a4.8,4.8,0,1,1-4.79,8.32h0l-75.76-43.86v87.46a4.76,4.76,0,0,1-4.72,4.8Z"/><path class="cls-2" d="M166.12,605a4.85,4.85,0,0,1-4.32-2.4,4.77,4.77,0,0,1,1.69-6.52l.08,0,75.9-43.75-75.75-43.74a4.76,4.76,0,0,1-2-6.44l.06-.12a4.83,4.83,0,0,1,6.56-1.76l80.79,46.44a6.38,6.38,0,0,1,0,11l-80.64,46.67A5,5,0,0,1,166.12,605Z"/><path class="cls-2" d="M286.72,650.61h-6.64v-6.22h3.11v-3.11h6.23v6.64A2.69,2.69,0,0,1,286.72,650.61Z"/><path class="cls-2" d="M267.53,650.61H255v-6.22h12.55Zm-25.1,0H229.88v-6.22h12.55Zm-25.11,0H204.77v-6.22h12.55Zm-25.1,0H179.67v-6.22h12.55Zm-25.1,0H154.57v-6.22h12.55Zm-25.11,0H129.46v-6.22H142Zm-25.1,0H104.36v-6.22h12.55Z"/><path class="cls-2" d="M91.8,650.61H85.17a2.69,2.69,0,0,1-2.7-2.69v-6.64h6.22v3.11H91.8Z"/><path class="cls-2" d="M88.69,629.39H82.47V617.5h6.22Zm0-23.78H82.47v-11.9h6.22Zm0-23.79H82.47V569.93h6.22Zm0-23.78H82.47V546.15h6.22Zm0-23.79H82.47V522.36h6.22Zm0-23.78H82.47V498.58h6.22Zm0-23.79H82.47V474.79h6.22Zm0-23.78H82.47V451h6.22Z"/><path class="cls-2" d="M88.69,439.11H82.47v-6.63a2.7,2.7,0,0,1,2.7-2.7H91.8V436H88.69Z"/><path class="cls-2" d="M267.53,436H255v-6.22h12.55Zm-25.1,0H229.88v-6.22h12.55Zm-25.11,0H204.77v-6.22h12.55Zm-25.1,0H179.67v-6.22h12.55Zm-25.1,0H154.57v-6.22h12.55ZM142,436H129.46v-6.22H142Zm-25.1,0H104.36v-6.22h12.55Z"/><path class="cls-2" d="M289.42,439.11h-6.23V436h-3.11v-6.22h6.64a2.7,2.7,0,0,1,2.7,2.7Z"/><path class="cls-2" d="M289.42,629.39h-6.23V617.5h6.23Zm0-23.78h-6.23V593.72h6.23Zm0-23.79h-6.23V569.93h6.23Zm0-23.78h-6.23V546.15h6.23Zm0-23.79h-6.23V522.36h6.23Zm0-23.78h-6.23V498.58h6.23Zm0-23.79h-6.23V474.79h6.23Zm0-23.78h-6.23V451h6.23Z"/></svg>