<svg data-name="Layer 1" xmlns="http://www.w3.org/2000/svg" width="954" height="264" style=""><rect id="backgroundrect" width="100%" height="100%" x="0" y="0" fill="none" stroke="none" style="" class=""/><defs><style>.cls-1{fill:#077cc1;}.cls-2{fill:#fff;}</style></defs><title>Blueprint_Logo</title><g class="currentLayer" style=""><title>Layer 1</title><path class="cls-1" d="M299.9900016784668,67.69998168945312 v-0.28999999165534973 c0,-21.700000762939453 16.780000686645508,-39.93000030517578 39.779998779296875,-39.93000030517578 c12,0 20.260000228881836,3.9100000858306885 26.760000228881836,9.550000190734863 a8.279999732971191,8.279999732971191 0 0 1 2.75,6.079999923706055 a8,8 0 0 1 -8.100000381469727,7.949999809265137 a9,9 0 0 1 -5.210000038146973,-1.7300000190734863 c-4.480000019073486,-3.7699999809265137 -9.399999618530273,-6.510000228881836 -16.34000015258789,-6.510000228881836 c-12.729999542236328,0 -22.1299991607666,11 -22.1299991607666,24.299999237060547 v0.28999999165534973 c0,13.59000015258789 9.399999618530273,24.440000534057617 22.850000381469727,24.440000534057617 c6.949999809265137,0 12.300000190734863,-2.740000009536743 17.06999969482422,-6.789999961853027 a7.369999885559082,7.369999885559082 0 0 1 12.300000190734863,5.78000020980835 a6.820000171661377,6.820000171661377 0 0 1 -2.4600000381469727,5.5 c-6.800000190734863,6.510000228881836 -15.050000190734863,10.850000381469727 -27.780000686645508,10.850000381469727 C316.79999923706055,107.19000244140625 299.9900016784668,89.38998413085938 299.9900016784668,67.69998168945312 z" id="svg_1"/><path class="cls-1" d="M386.8199882507324,37.029998779296875 a8.640000343322754,8.640000343322754 0 0 1 8.680000305175781,-8.819999694824219 a8.760000228881836,8.760000228881836 0 0 1 8.819999694824219,8.819999694824219 V44.8699951171875 c4.050000190734863,-9.550000190734863 11.569999694824219,-16.780000686645508 19.239999771118164,-16.780000686645508 c5.5,0 8.680000305175781,3.619999885559082 8.680000305175781,8.680000305175781 a8.210000038146973,8.210000038146973 0 0 1 -6.949999809265137,8.390000343322754 c-12.430000305175781,2.1700000762939453 -21,11.720000267028809 -21,29.799999237060547 v22.56999969482422 a8.729999542236328,8.729999542236328 0 0 1 -8.819999694824219,8.670000076293945 a8.609999656677246,8.609999656677246 0 0 1 -8.680000305175781,-8.670000076293945 z" id="svg_2"/><path class="cls-1" d="M478.9900016784668,107.19000244140625 c-22.1299991607666,0 -39.20000076293945,-16.059999465942383 -39.20000076293945,-39.63999938964844 v-0.28999999165534973 c0,-21.84000015258789 15.479999542236328,-39.779998779296875 37.31999969482422,-39.779998779296875 c24.299999237060547,0 36.310001373291016,20 36.310001373291016,37.61000061035156 a8.180000305175781,8.180000305175781 0 0 1 -8.25,8.390000343322754 H457.2600212097168 c1.8799999952316284,12.4399995803833 10.710000038146973,19.389999389648438 22,19.389999389648438 a27.450000762939453,27.450000762939453 0 0 0 18.079999923706055,-6.659999847412109 a6.53000020980835,6.53000020980835 0 0 1 4.489999771118164,-1.590000033378601 a6.889999866485596,6.889999866485596 0 0 1 6.940000057220459,7.090000152587891 a7.599999904632568,7.599999904632568 0 0 1 -2.319999933242798,5.349999904632568 C499.5000114440918,103.27999877929688 490.82001876831055,107.19000244140625 478.9900016784668,107.19000244140625 zM496.32001876831055,61.8699951171875 c-1.159999966621399,-11.279999732971191 -7.809999942779541,-20.110000610351562 -19.3799991607666,-20.110000610351562 c-10.710000038146973,0 -18.229999542236328,8.25 -19.81999969482422,20.110000610351562 z" id="svg_3"/><path class="cls-1" d="M526.2600212097168,83.45999145507812 v-0.28999999165534973 c0,-16.489999771118164 12.880000114440918,-24.59000015258789 31.540000915527344,-24.59000015258789 a63.81999969482422,63.81999969482422 0 0 1 20.540000915527344,3.190000057220459 V59.8699951171875 c0,-10.850000381469727 -6.659999847412109,-16.639999389648438 -19,-16.639999389648438 a45.400001525878906,45.400001525878906 0 0 0 -16.93000030517578,3 a9.779999732971191,9.779999732971191 0 0 1 -2.75,0.4300000071525574 a7.28000020980835,7.28000020980835 0 0 1 -7.369999885559082,-7.230000019073486 a7.639999866485596,7.639999866485596 0 0 1 4.769999980926514,-6.940000057220459 a65.41999816894531,65.41999816894531 0 0 1 24.59000015258789,-4.489999771118164 c11.430000305175781,0 20,3 25.31999969482422,8.539999961853027 c5.639999866485596,5.489999771118164 8.239999771118164,13.59000015258789 8.239999771118164,23.56999969482422 v37.61000061035156 a8.329999923706055,8.329999923706055 0 0 1 -8.529999732971191,8.390000343322754 c-5.070000171661377,0 -8.539999961853027,-3.4700000286102295 -8.539999961853027,-7.369999885559082 V95.8699951171875 c-5.210000038146973,6.21999979019165 -13.15999984741211,11.140000343322754 -24.8799991607666,11.140000343322754 C538.9900016784668,107.03997802734375 526.2600212097168,98.79998779296875 526.2600212097168,83.45999145507812 zm52.369998931884766,-5.489999771118164 v-5.210000038146973 a48.47999954223633,48.47999954223633 0 0 0 -17.360000610351562,-3 c-11.289999961853027,0 -17.940000534057617,4.78000020980835 -17.940000534057617,12.729999542236328 v0.28999999165534973 c0,7.380000114440918 6.510000228881836,11.569999694824219 14.899999618530273,11.569999694824219 C569.7999992370605,94.30999755859375 578.6300163269043,87.66000366210938 578.6300163269043,77.97000122070312 z" id="svg_4"/><path class="cls-1" d="M619.1300163269043,84.32998657226562 V44.1199951171875 h-2.890000104904175 a7.53000020980835,7.53000020980835 0 0 1 0,-15.050000190734863 h2.890000104904175 v-13 a8.75,8.75 0 0 1 17.5,0 v13 h13.75 a7.53000020980835,7.53000020980835 0 1 1 0,15.050000190734863 H636.6300163269043 v37.459999084472656 c0,6.800000190734863 3.4800000190734863,9.550000190734863 9.40999984741211,9.550000190734863 a42,42 0 0 0 4.340000152587891,-0.4300000071525574 a7.369999885559082,7.369999885559082 0 0 1 7.369999885559082,7.230000019073486 a7.53000020980835,7.53000020980835 0 0 1 -4.630000114440918,6.800000190734863 a34.81999969482422,34.81999969482422 0 0 1 -12,2 C628.2400016784668,106.75 619.1300163269043,101.1099853515625 619.1300163269043,84.32998657226562 z" id="svg_5"/><path class="cls-1" d="M674.680004119873,8.529998779296875 c0,-5.199999809265137 4.340000152587891,-8.529999732971191 10,-8.529999732971191 s10,3.3299999237060547 10,8.529999732971191 v0.8700000047683716 c0,5.210000038146973 -4.340000152587891,8.680000305175781 -10,8.680000305175781 s-10,-3.4700000286102295 -10,-8.680000305175781 zm1.2999999523162842,28.5 a8.640000343322754,8.640000343322754 0 0 1 8.680000305175781,-8.819999694824219 a8.760000228881836,8.760000228881836 0 0 1 8.819999694824219,8.819999694824219 v60.470001220703125 a8.75,8.75 0 0 1 -17.5,0 z" id="svg_6"/><path class="cls-1" d="M748.159984588623,106.8699951171875 h-0.8700000047683716 c-4.769999980926514,0 -7.949999809265137,-3 -10,-7.670000076293945 l-25.459999084472656,-58.290000915527344 a13.800000190734863,13.800000190734863 0 0 1 -1,-4.340000152587891 a8.75,8.75 0 0 1 8.680000305175781,-8.390000343322754 c4.78000020980835,0 7.230000019073486,2.740000009536743 8.680000305175781,6.360000133514404 l19.670000076293945,50.630001068115234 l20,-50.91999816894531 c1.309999942779541,-3 3.619999885559082,-6.070000171661377 8.25,-6.070000171661377 a8.34000015258789,8.34000015258789 0 0 1 8.539999961853027,8.390000343322754 a10.369999885559082,10.369999885559082 0 0 1 -1,4.190000057220459 l-25.459999084472656,58.439998626708984 C756.1200065612793,103.72000122070312 752.9900016784668,106.8699951171875 748.159984588623,106.8699951171875 z" id="svg_7"/><path class="cls-1" d="M833.2199821472168,107.19000244140625 c-22.1299991607666,0 -39.20000076293945,-16.059999465942383 -39.20000076293945,-39.63999938964844 v-0.28999999165534973 c0,-21.84000015258789 15.479999542236328,-39.779998779296875 37.31999969482422,-39.779998779296875 c24.299999237060547,0 36.310001373291016,20 36.310001373291016,37.61000061035156 a8.180000305175781,8.180000305175781 0 0 1 -8.25,8.390000343322754 H811.5200309753418 c1.8799999952316284,12.4399995803833 10.710000038146973,19.389999389648438 22,19.389999389648438 a27.450000762939453,27.450000762939453 0 0 0 18.079999923706055,-6.659999847412109 a6.519999980926514,6.519999980926514 0 0 1 4.480000019073486,-1.590000033378601 a6.889999866485596,6.889999866485596 0 0 1 6.949999809265137,7.090000152587891 a7.599999904632568,7.599999904632568 0 0 1 -2.319999933242798,5.349999904632568 C853.7600212097168,103.27999877929688 845.0800285339355,107.19000244140625 833.2199821472168,107.19000244140625 zM850.5800285339355,61.8699951171875 c-1.159999966621399,-11.279999732971191 -7.809999942779541,-20.110000610351562 -19.389999389648438,-20.110000610351562 c-10.699999809265137,0 -18.219999313354492,8.25 -19.809999465942383,20.110000610351562 z" id="svg_8"/><path class="cls-1" d="M305.66999435424805,138.66998291015625 a5.570000171661377,5.570000171661377 0 1 1 11.130000114440918,0 v40.939998626708984 c6.079999923706055,-9 14.899999618530273,-16.6299991607666 28.649999618530273,-16.6299991607666 c17.93000030517578,0 35.720001220703125,14.170000076293945 35.720001220703125,38.7599983215332 v0.28999999165534973 c0,24.450000762939453 -17.639999389648438,38.90999984741211 -35.720001220703125,38.90999984741211 c-13.890000343322754,0 -22.860000610351562,-7.519999980926514 -28.649999618530273,-15.90999984741211 v9.40999984741211 a5.519999980926514,5.519999980926514 0 0 1 -5.489999771118164,5.639999866485596 a5.650000095367432,5.650000095367432 0 0 1 -5.639999866485596,-5.639999866485596 zm64.08000183105469,63.5099983215332 V201.8699951171875 c0,-17.649999618530273 -12.15999984741211,-28.93000030517578 -26.329999923706055,-28.93000030517578 c-13.890000343322754,0 -27.049999237060547,11.710000038146973 -27.049999237060547,28.780000686645508 v0.28999999165534973 c0,17.360000610351562 13.15999984741211,28.93000030517578 27.049999237060547,28.93000030517578 C357.8899955749512,230.96002197265625 369.7500114440918,220.260009765625 369.7500114440918,202.17999267578125 z" id="svg_9"/><path class="cls-1" d="M396.9900016784668,138.66998291015625 a5.570000171661377,5.570000171661377 0 1 1 11.140000343322754,0 v95.7699966430664 a5.440000057220459,5.440000057220459 0 0 1 -5.5,5.639999866485596 a5.559999942779541,5.559999942779541 0 0 1 -5.639999866485596,-5.639999866485596 z" id="svg_10"/><path class="cls-1" d="M492.2700309753418,234.44000244140625 a5.5,5.5 0 1 1 -11,0 v-8.109999656677246 c-5.059999942779541,8.109999656677246 -12.729999542236328,14.609999656677246 -25.600000381469727,14.609999656677246 c-18.079999923706055,0 -28.639999389648438,-12.149999618530273 -28.639999389648438,-29.940000534057617 V169.47998046875 a5.440000057220459,5.440000057220459 0 0 1 5.489999771118164,-5.639999866485596 a5.650000095367432,5.650000095367432 0 0 1 5.650000095367432,5.639999866485596 v38.77000045776367 c0,13.890000343322754 7.519999980926514,22.56999969482422 20.68000030517578,22.56999969482422 c12.729999542236328,0 22.420000076293945,-9.399999618530273 22.420000076293945,-23.43000030517578 V169.47998046875 a5.440000057220459,5.440000057220459 0 0 1 5.5,-5.639999866485596 a5.53000020980835,5.53000020980835 0 0 1 5.5,5.639999866485596 z" id="svg_11"/><path class="cls-1" d="M544.200023651123,241.0899658203125 c-20.540000915527344,0 -37.31999969482422,-15.770000457763672 -37.31999969482422,-38.90999984741211 V201.8699951171875 c0,-21.559999465942383 15.180000305175781,-38.90999984741211 35.869998931884766,-38.90999984741211 c22.1299991607666,0 34.720001220703125,18.079999923706055 34.720001220703125,37.900001525878906 a5.179999828338623,5.179999828338623 0 0 1 -5.210000038146973,5.199999809265137 h-54.099998474121094 c1.590000033378601,16.200000762939453 13,25.31999969482422 26.329999923706055,25.31999969482422 c9.25,0 16,-3.619999885559082 21.549999237060547,-8.680000305175781 a4.769999980926514,4.769999980926514 0 1 1 6.360000133514404,7.090000152587891 C565.3200187683105,236.5999755859375 556.930004119873,241.0899658203125 544.200023651123,241.0899658203125 zM566.3300285339355,197.8699951171875 c-1.159999966621399,-13.600000381469727 -9,-25.459999084472656 -23.8700008392334,-25.459999084472656 c-13,0 -22.850000381469727,10.850000381469727 -24.299999237060547,25.459999084472656 z" id="svg_12"/><path class="cls-1" d="M591.3499870300293,169.47998046875 a5.570000171661377,5.570000171661377 0 1 1 11.140000343322754,0 v10.130000114440918 c6.079999923706055,-9 14.899999618530273,-16.6299991607666 28.639999389648438,-16.6299991607666 c17.940000534057617,0 35.72999954223633,14.170000076293945 35.72999954223633,38.7599983215332 v0.28999999165534973 c0,24.450000762939453 -17.649999618530273,38.90999984741211 -35.72999954223633,38.90999984741211 c-13.880000114440918,0 -22.850000381469727,-7.519999980926514 -28.639999389648438,-15.90999984741211 v32.54999923706055 a5.440000057220459,5.440000057220459 0 0 1 -5.5,5.639999866485596 a5.559999942779541,5.559999942779541 0 0 1 -5.639999866485596,-5.639999866485596 zm64.08000183105469,32.70000076293945 V201.8699951171875 c0,-17.649999618530273 -12.149999618530273,-28.93000030517578 -26.31999969482422,-28.93000030517578 c-13.890000343322754,0 -27,11.710000038146973 -27,28.780000686645508 v0.28999999165534973 c0,17.360000610351562 13.15999984741211,28.93000030517578 27,28.93000030517578 C643.5700187683105,230.96002197265625 655.430004119873,220.260009765625 655.430004119873,202.17999267578125 z" id="svg_13"/><path class="cls-1" d="M681.6200065612793,169.47998046875 a5.619999885559082,5.619999885559082 0 0 1 5.489999771118164,-5.639999866485596 a5.559999942779541,5.559999942779541 0 0 1 5.650000095367432,5.639999866485596 v14 c5.489999771118164,-12.4399995803833 16.34000015258789,-20 25.739999771118164,-20 a5.349999904632568,5.349999904632568 0 0 1 5.5,5.639999866485596 a5.539999961853027,5.539999961853027 0 0 1 -4.920000076293945,5.639999866485596 c-14.460000038146973,1.7300000190734863 -26.31999969482422,12.579999923706055 -26.31999969482422,34.13999938964844 v25.459999084472656 a5.570000171661377,5.570000171661377 0 1 1 -11.140000343322754,0 z" id="svg_14"/><path class="cls-1" d="M734.409984588623,141.1300048828125 c0,-3.609999895095825 2.9000000953674316,-5.929999828338623 6.510000228881836,-5.929999828338623 c3.759999990463257,0 6.659999847412109,2.319999933242798 6.659999847412109,5.929999828338623 v1.8799999952316284 c0,3.4800000190734863 -2.9000000953674316,5.940000057220459 -6.659999847412109,5.940000057220459 c-3.609999895095825,0 -6.510000228881836,-2.4600000381469727 -6.510000228881836,-5.940000057220459 zm1,28.350000381469727 a5.619999885559082,5.619999885559082 0 0 1 5.489999771118164,-5.639999866485596 a5.559999942779541,5.559999942779541 0 0 1 5.650000095367432,5.639999866485596 v65 a5.440000057220459,5.440000057220459 0 0 1 -5.5,5.639999866485596 a5.559999942779541,5.559999942779541 0 0 1 -5.639999866485596,-5.639999866485596 z" id="svg_15"/><path class="cls-1" d="M766.669994354248,169.47998046875 a5.619999885559082,5.619999885559082 0 0 1 5.5,-5.639999866485596 a5.559999942779541,5.559999942779541 0 0 1 5.639999866485596,5.639999866485596 v8.109999656677246 c4.920000076293945,-8.109999656677246 12.729999542236328,-14.609999656677246 25.600000381469727,-14.609999656677246 c18.079999923706055,0 28.639999389648438,12.149999618530273 28.639999389648438,29.940000534057617 v41.52000045776367 a5.570000171661377,5.570000171661377 0 1 1 -11.140000343322754,0 V195.66998291015625 c0,-13.890000343322754 -7.519999980926514,-22.56999969482422 -20.68000030517578,-22.56999969482422 c-12.869999885559082,0 -22.420000076293945,9.399999618530273 -22.420000076293945,23.440000534057617 v37.900001525878906 a5.440000057220459,5.440000057220459 0 0 1 -5.5,5.639999866485596 a5.559999942779541,5.559999942779541 0 0 1 -5.639999866485596,-5.639999866485596 z" id="svg_16"/><path class="cls-1" d="M853.899974822998,219.53997802734375 V174.4000244140625 h-6.079999923706055 a5.070000171661377,5.070000171661377 0 0 1 -4.920000076293945,-4.920000076293945 a5,5 0 0 1 4.920000076293945,-4.909999847412109 h6.079999923706055 V146.91998291015625 a5.519999980926514,5.519999980926514 0 0 1 5.489999771118164,-5.639999866485596 a5.75,5.75 0 0 1 5.650000095367432,5.639999866485596 V164.57000732421875 h19.3799991607666 a5.090000152587891,5.090000152587891 0 0 1 5.059999942779541,4.909999847412109 a5,5 0 0 1 -5.059999942779541,4.920000076293945 H865.0399894714355 v43.689998626708984 c0,9.109999656677246 5.059999942779541,12.4399995803833 12.579999923706055,12.4399995803833 c3.9100000858306885,0 5.929999828338623,-1 6.800000190734863,-1 a4.809999942779541,4.809999942779541 0 0 1 4.769999980926514,4.769999980926514 a4.639999866485596,4.639999866485596 0 0 1 -3.180000066757202,4.340000152587891 a28.139999389648438,28.139999389648438 0 0 1 -11,2 C862.9900016784668,240.65997314453125 853.899974822998,234.719970703125 853.899974822998,219.53997802734375 z" id="svg_17"/><path class="cls-1" d="M898.5999870300293,231.4000244140625 a5,5 0 0 1 -2,-4 a4.849999904632568,4.849999904632568 0 0 1 4.920000076293945,-4.78000020980835 a4.46999979019165,4.46999979019165 0 0 1 2.75,0.8700000047683716 c7.659999847412109,5.210000038146973 15.619999885559082,8 23.719999313354492,8 c9,0 15.479999542236328,-4.630000114440918 15.479999542236328,-11.859999656677246 v-0.28999999165534973 c0,-7.53000020980835 -8.829999923706055,-10.420000076293945 -18.65999984741211,-13.170000076293945 c-11.720000267028809,-3.319999933242798 -24.739999771118164,-7.369999885559082 -24.739999771118164,-21.1200008392334 v-0.28999999165534973 c0,-12.869999885559082 10.710000038146973,-21.40999984741211 25.459999084472656,-21.40999984741211 a52.15999984741211,52.15999984741211 0 0 1 23.8700008392334,6.369999885559082 a5.409999847412109,5.409999847412109 0 0 1 2.75,4.630000114440918 a4.849999904632568,4.849999904632568 0 0 1 -4.920000076293945,4.769999980926514 a5.599999904632568,5.599999904632568 0 0 1 -2.4600000381469727,-0.5799999833106995 c-6.369999885559082,-3.609999895095825 -13.15999984741211,-5.78000020980835 -19.530000686645508,-5.78000020980835 c-8.819999694824219,0 -14.460000038146973,4.630000114440918 -14.460000038146973,10.850000381469727 v0.28999999165534973 c0,7.079999923706055 9.25,9.829999923706055 19.239999771118164,12.869999885559082 c11.569999694824219,3.4700000286102295 24,8 24,21.40999984741211 v0.28999999165534973 c0,14.170000076293945 -11.720000267028809,22.420000076293945 -26.6200008392334,22.420000076293945 A51.7599983215332,51.7599983215332 0 0 1 898.5999870300293,231.4000244140625 z" id="svg_18"/><rect class="cls-1" x="0" y="0.399993896484375" width="249.8699951171875" height="263.3399963378906" rx="6.46999979019165" ry="6.46999979019165" id="svg_19"/><path class="cls-2" d="M68.26000595092773,189.3399658203125 V96.41000366210938 a4.940000057220459,4.940000057220459 0 0 1 4.71999979019165,-5 a4.840000152587891,4.840000152587891 0 0 1 4.869999885559082,4.800000190734863 h0 v87.48999786376953 l75.76000213623047,-43.75 a4.800000190734863,4.800000190734863 0 1 1 4.800000190734863,8.319999694824219 h0 l-80.62999725341797,46.45000076293945 a6.369999885559082,6.369999885559082 0 0 1 -9.520000457763672,-5.400000095367432 z" id="svg_20"/><path class="cls-2" d="M88.8700065612793,168.989990234375 a4.920000076293945,4.920000076293945 0 0 1 -4.71999979019165,-5 v-93 a6.360000133514404,6.360000133514404 0 0 1 9.5600004196167,-5.510000228881836 l80.58999633789062,46.7400016784668 a4.800000190734863,4.800000190734863 0 1 1 -4.789999961853027,8.319999694824219 h0 l-75.76000213623047,-43.86000061035156 v87.45999908447266 a4.760000228881836,4.760000228881836 0 0 1 -4.71999979019165,4.800000190734863 z" id="svg_21"/><path class="cls-2" d="M105.1099967956543,196.8699951171875 a4.849999904632568,4.849999904632568 0 0 1 -4.320000171661377,-2.4000000953674316 a4.769999980926514,4.769999980926514 0 0 1 1.690000057220459,-6.519999980926514 l0.07999999821186066,0 l75.9000015258789,-43.75 l-75.75,-43.7400016784668 a4.760000228881836,4.760000228881836 0 0 1 -2,-6.440000057220459 l0.05999999865889549,-0.11999999731779099 a4.829999923706055,4.829999923706055 0 0 1 6.559999942779541,-1.7599999904632568 l80.79000091552734,46.439998626708984 a6.380000114440918,6.380000114440918 0 0 1 0,11 l-80.63999938964844,46.66999816894531 A5,5 0 0 1 105.1099967956543,196.8699951171875 z" id="svg_22"/><path class="cls-2" d="M225.71000289916992,242.47998046875 h-6.639999866485596 v-6.21999979019165 h3.109999895095825 v-3.109999895095825 h6.230000019073486 v6.639999866485596 A2.690000057220459,2.690000057220459 0 0 1 225.71000289916992,242.47998046875 z" id="svg_23"/><path class="cls-2" d="M206.52000045776367,242.47998046875 H193.9900016784668 v-6.21999979019165 h12.550000190734863 zm-25.100000381469727,0 H168.8700065612793 v-6.21999979019165 h12.550000190734863 zm-25.110000610351562,0 H143.76000595092773 v-6.21999979019165 h12.550000190734863 zm-25.100000381469727,0 H118.65999984741211 v-6.21999979019165 h12.550000190734863 zm-25.100000381469727,0 H93.56000900268555 v-6.21999979019165 h12.550000190734863 zm-25.110000610351562,0 H68.45000839233398 v-6.21999979019165 H80.9900016784668 zm-25.100000381469727,0 H43.35000228881836 v-6.21999979019165 h12.550000190734863 z" id="svg_24"/><path class="cls-2" d="M30.79000473022461,242.47998046875 H24.15999984741211 a2.690000057220459,2.690000057220459 0 0 1 -2.700000047683716,-2.690000057220459 v-6.639999866485596 h6.21999979019165 v3.109999895095825 H30.79000473022461 z" id="svg_25"/><path class="cls-2" d="M27.680004119873047,221.260009765625 H21.460002899169922 V209.3699951171875 h6.21999979019165 zm0,-23.780000686645508 H21.460002899169922 v-11.899999618530273 h6.21999979019165 zm0,-23.790000915527344 H21.460002899169922 V161.79998779296875 h6.21999979019165 zm0,-23.780000686645508 H21.460002899169922 V138.02001953125 h6.21999979019165 zm0,-23.790000915527344 H21.460002899169922 V114.22998046875 h6.21999979019165 zm0,-23.780000686645508 H21.460002899169922 V90.44998168945312 h6.21999979019165 zm0,-23.790000915527344 H21.460002899169922 V66.66000366210938 h6.21999979019165 zm0,-23.780000686645508 H21.460002899169922 V42.8699951171875 h6.21999979019165 z" id="svg_26"/><path class="cls-2" d="M27.680004119873047,30.97998046875 H21.460002899169922 v-6.630000114440918 a2.700000047683716,2.700000047683716 0 0 1 2.700000047683716,-2.700000047683716 H30.79000473022461 V27.8699951171875 H27.680004119873047 z" id="svg_27"/><path class="cls-2" d="M206.52000045776367,27.8699951171875 H193.9900016784668 v-6.21999979019165 h12.550000190734863 zm-25.100000381469727,0 H168.8700065612793 v-6.21999979019165 h12.550000190734863 zm-25.110000610351562,0 H143.76000595092773 v-6.21999979019165 h12.550000190734863 zm-25.100000381469727,0 H118.65999984741211 v-6.21999979019165 h12.550000190734863 zm-25.100000381469727,0 H93.56000900268555 v-6.21999979019165 h12.550000190734863 zM80.9900016784668,27.8699951171875 H68.45000839233398 v-6.21999979019165 H80.9900016784668 zm-25.100000381469727,0 H43.35000228881836 v-6.21999979019165 h12.550000190734863 z" id="svg_28"/><path class="cls-2" d="M228.41001510620117,30.97998046875 h-6.230000019073486 V27.8699951171875 h-3.109999895095825 v-6.21999979019165 h6.639999866485596 a2.700000047683716,2.700000047683716 0 0 1 2.700000047683716,2.700000047683716 z" id="svg_29"/><path class="cls-2" d="M228.41001510620117,221.260009765625 h-6.230000019073486 V209.3699951171875 h6.230000019073486 zm0,-23.780000686645508 h-6.230000019073486 V185.5899658203125 h6.230000019073486 zm0,-23.790000915527344 h-6.230000019073486 V161.79998779296875 h6.230000019073486 zm0,-23.780000686645508 h-6.230000019073486 V138.02001953125 h6.230000019073486 zm0,-23.790000915527344 h-6.230000019073486 V114.22998046875 h6.230000019073486 zm0,-23.780000686645508 h-6.230000019073486 V90.44998168945312 h6.230000019073486 zm0,-23.790000915527344 h-6.230000019073486 V66.66000366210938 h6.230000019073486 zm0,-23.780000686645508 h-6.230000019073486 V42.8699951171875 h6.230000019073486 z" id="svg_30"/></g></svg>